<svg id="Layer_1" data-name="Layer 1" xmlns="http://www.w3.org/2000/svg" viewBox="0 0 600 600"><defs><style>.cls-1{fill:#ff8f00;}.cls-1,.cls-2{fill-rule:evenodd;}.cls-2{fill:#11a3dd;}</style></defs><title>Artboard 1</title><path class="cls-1" d="M381.92,324.63c-1.14,0-3.05-.85-4.24-1.16-1.42-.38-2.81-.61-4.37-1-8.78-2.35-25.69-1.61-34.31.5l-11.7,2.55c-4.26.75-16.9,5-21.93,6.59l-15.51,5.69A107.57,107.57,0,0,0,279.8,342c-6.34,3.07-13.61,5.93-18.37,11.3l-17.72,9.26c-1.68.84-3.19,1.39-4.76,2.18l-28.78,14c-4,1.95-6.67,10.17-6.67,14.92,0,3.92,3.16,6.85,6.43,8.22,6.42,2.68,29,1.09,35.2-.89,2.74-.88,5.46-1.61,7.92-3.25,1.56-1,3-1.72,4.62-2.71a78.7,78.7,0,0,1,10-5c1.85-.76,3.23-1.44,5.12-2.2a46.14,46.14,0,0,1,5.44-1.88c5.34-1.43,4.25-.25,8.13,1.52,1.8.83,2.28.37,2.28,2.34,0,3.29-1.47,4.94-2.36,7.66a27.79,27.79,0,0,1-5.83,9.21L273.8,415c-1,1.25-1.37,1.54-2.37,2.65-.3.34-.3.35-.53.62l-.52.64c-.58.69-.66.8-1.27,1.43a123.18,123.18,0,0,1-10.59,9.45c-1.93,1.57-3.67,3-5.69,4.33,1.74,7.5.36,7.92,5.23,15.19,2.68,4,8.2,13.27,12.11,15.26,6.4,3.26,16.52-1.08,19.65-1.15l1.6,5c-1,.23-2.07.49-2.84.7l-6.24,1.47c-4.65,1-12.77,1-16.32-2.24-6.95-6.32-12.12-14.62-16.29-23-1.85-3.73-1.23-6.74-2.29-10.82-1.32-5.13-3.9-15.09-6.3-19.92-3.7-7.45-13.09-6.54-19.09-2.76-2,1.25-2,3.54-2.14,5.85l0,3.34c0,1-.07-.27,0,1.11l.92,5.48c.1,3.15-.83,3.57.28,9.78l1.71,9.08a12.05,12.05,0,0,0,.77,3.09c3.57,8.41,10.25,21.5,14.76,29.56.91,1.62,1.68,3.18,2.65,4.68s1.77,2.9,2.85,4.47c.66.94.82,1.05,1.47,2a17.44,17.44,0,0,0,7.79,6.85c2.49,1.12,6.09.94,9.42,1,.63,0,1.12.05,1.7.09l2.7.14.27,0c5.59.42,49.06.44,57.17,0,6.17-.35,6.1.73,11.45-4.37,1.62-1.55,3.75-2.71,5.13-4.51l19.59-19.72.19-.2c.63-.69,1-1.1,1.68-1.79,1.31-1.29,1.85-2.24,3.08-3.47,3.8-3.83,7.35-8.17,10.81-12.32,3-3.57,6.82-6.69,9.79-10.25.71-.84.74-1.06,1.55-1.92.6-.62,1-.94,1.59-1.49l5.36-5.05c15.3-15.33,28.79-21.94,49.14-30.64,12.38-5.29,24.81-10.87,37.33-15.86l57.14-22.64c1.79-.69,3.1-1.07,4.79-1.76,1.18-.48,2.68-1.05,4-1.53,15.32-6.88,38.82-24-33.66-47-9.51-2.16-19.14-3.8-29.06-5.18-8.59-1.19-18.77-1.37-27.53-1.37-15.78,0-34.48,2.81-49.28,8.14-5.65,2-10.45,5.88-16.55,6.57C387.36,322.38,385.86,324.63,381.92,324.63Z"/><path class="cls-1" d="M190.78,416.77c0,3.12,2.38,7.55,2.32,13.87l2,21.93c1.37,8,2.15,15.61,5.18,23.73,1.73,4.66,3.21,10.75,5.17,15.64l9.49,23.67c.69,1.42.69,1.68,2.14,2.09,7,1.93,9,0,15-.66,2.89-.31,11.72-2.57,14.84-3.27.55-.13,1.33-.26,1.89-.43.91-.26.79-.31,1.73-.58L261.23,510c1.13-.31,2.26-.75,3.54-1.09l6.79-2.06c1.28-.41,2.56-.64,3.66-1a13.06,13.06,0,0,1,3.81-.82V503.9c-9.51,0-16.44,0-25-.79-2.51-.24-2.59-.73-4.33-1.47-4.59-1.95-8.24-7-10.9-11.08l-13.72-25.21c-.52-1.2-1.14-2.32-1.79-3.6-3.37-6.7-6.29-13.13-7.1-20.66l-1.52-12.36-2.34-6.14a59.32,59.32,0,0,0-7.76-9.19c-1.63-1.45-5.05-4-7.61-4C195.82,409.44,190.78,413.77,190.78,416.77Z"/><path class="cls-1" d="M139.92,448.38c0,3.38,3.51,5.79,5.1,7.23,3.12,2.8,2.53.58,6.15,6.58,4.1,6.82,12.38,20,17.71,24.3.81.65,1.17,1.19,2,1.87L178,494c5.06,4.31,13.34,10.31,19.22,14.31,2,1.33,9,5.84,11,6l-3.8-9.68c-1.35-3.29-2.4-6.46-3.56-9.93l-5.21-15.23c-.48-1.46-1.16-4.17-1.68-5.25-5.43,0-5.2-.76-8-3.57l-6-6c-4-4-7.77-7.73-11.75-11.76l-6.21-5.36c-3.21-2.52-12.77-8.15-16.78-5.88C143.53,442.59,139.92,447.27,139.92,448.38Z"/><path class="cls-1" d="M155.33,488.47c-1.07,0-8,2.3-9.13,2.82-10.19,4.76-5.12,12,.42,14.38,9.76,4.19,23,2.18,32.85,0,2.06-.45,1.37,0,2.84-1a11.62,11.62,0,0,0-2.92-2.48L164,489.45c-2.73-2.13-1.93-.93-6-.71C156.66,488.8,156.84,488.47,155.33,488.47Z"/><path class="cls-2" d="M306.93,165.1c-3.21-40.62-40.77-71.53-81.23-67.79s-70.84,40.51-67.26,80.85c3.69,41.61,39.64,70.75,81.05,67.45C280.51,242.33,310.14,205.72,306.93,165.1Zm-21.85,5.58c-3.64-1.79-3.23-7.9-3.78-11.32-3.19-19.91-19.17-35.62-39-38-3.49-.42-9.37,0-10.63-4.28-1.37-4.63,3.78-6.22,7.33-6.27,4.24-.06,8.42,1.11,12.5,2.17,22.19,5.75,40.58,28.58,40.58,51.47C292.11,168.33,289.59,172.91,285.08,170.68Z"/><path class="cls-2" d="M286.41,286.3A20.84,20.84,0,1,0,244.89,290a20.84,20.84,0,0,0,41.52-3.65Zm-6.11,1.56c-1-.5-.91-2.21-1.06-3.17a12.71,12.71,0,0,0-10.89-10.62c-1-.12-2.62,0-3-1.2s1.06-1.74,2.05-1.75a13.45,13.45,0,0,1,3.5.6c6.2,1.61,11.34,8,11.34,14.4C282.26,287.2,281.56,288.48,280.3,287.86Z"/><path class="cls-2" d="M153.22,228.62c-2-25.5-25.59-44.9-51-42.55S57.77,211.5,60,236.82c2.32,26.12,24.89,44.41,50.88,42.34C136.64,277.1,155.24,254.12,153.22,228.62Zm-13.71,3.5c-2.29-1.12-2-5-2.38-7.1a28.52,28.52,0,0,0-24.46-23.86c-2.19-.27-5.88,0-6.67-2.69-.86-2.91,2.37-3.9,4.6-3.94a30.08,30.08,0,0,1,7.85,1.37c13.93,3.61,25.47,17.94,25.47,32.31C143.92,230.65,142.34,233.52,139.51,232.12Z"/><path class="cls-2" d="M211.16,300.1c-1.61-20.31-20.39-35.76-40.62-33.89a37.56,37.56,0,0,0-33.63,40.42c1.85,20.81,19.82,35.38,40.53,33.73C198,338.72,212.76,320.41,211.16,300.1Zm-10.93,2.79c-1.82-.89-1.61-3.95-1.89-5.66a22.71,22.71,0,0,0-19.48-19c-1.75-.21-4.69,0-5.32-2.14-.68-2.32,1.89-3.11,3.67-3.14a23.84,23.84,0,0,1,6.25,1.09c11.09,2.87,20.29,14.29,20.29,25.73C203.75,301.72,202.49,304,200.23,302.89Z"/></svg>